<svg xmlns="http://www.w3.org/2000/svg" viewBox="0 0 113.4 94.3" enable-background="new 0 0 113.4 94.3"><style type="text/css">.st0{fill:#272726;}</style><path d="M2.4 48.7h46.5v.8H2.4zM48.7 79.7L1.8 49.1l46.9-31.9.4.6-46 31.3 46 29.9zM57.3 17.1H55v-.3c.2 0 .4 0 .5-.1.1 0 .2-.1.2-.1s0-.1 0-.1 0-.1 0-.1l-.5-1.2h-1.9c-.1.2-.1.3-.2.5s-.1.2-.2.3c0 .1-.1.2-.1.3 0 .1 0 .1 0 .2s.1.2.2.2.3.1.6.1v.3h-2.1v-.3c.1 0 .2 0 .3 0s.2-.1.2-.1c.1-.1.2-.1.2-.2s.1-.2.2-.3c.3-.7.6-1.5.9-2.3s.6-1.6.9-2.3h.3l1.8 4.8c0 .1.1.2.1.2s.1.1.2.2c.1 0 .1.1.2.1s.2 0 .2 0v.2zM55 14.8l-.8-2.2-.8 2.2H55zM108 41.5c0 .5-.1.9-.3 1.2s-.4.6-.7.9c-.3.2-.6.4-1 .5s-.7.2-1.1.2h-2.3V44c.1 0 .2 0 .3 0s.2 0 .2 0c.1 0 .1-.1.2-.2s.1-.1.1-.2v-4c0-.1 0-.2 0-.2s-.1-.1-.2-.2c-.1 0-.2-.1-.3-.1s-.2 0-.2 0v-.3h2.4c.3 0 .7.1 1 .2s.6.2.8.4c.3.2.6.5.8.9s.3.7.3 1.2zm-.9 0c0-.4 0-.7-.1-1-.1-.3-.2-.6-.4-.8-.2-.2-.4-.4-.7-.5-.3-.1-.6-.2-.9-.2-.1 0-.2 0-.4 0s-.2 0-.3 0v4.3c0 .2.1.4.2.5.1.1.4.1.6.1.3 0 .6-.1.9-.2.2-.1.4-.3.6-.5.2-.2.3-.5.4-.8 0-.2.1-.5.1-.9zM56.1 49.1c.2.1.3.3.4.4s.2.4.2.6c0 .3-.1.5-.2.7s-.3.3-.4.5c-.2.1-.4.2-.6.3s-.4.1-.7.1h-2.6v-.3c.1 0 .2 0 .3 0s.2 0 .3-.1c.1 0 .1-.1.2-.1s.1-.1.1-.2v-4c0-.1 0-.2 0-.2s-.1-.1-.2-.2c-.1 0-.2-.1-.3-.1s-.2 0-.2 0v-.3H55c.2 0 .4 0 .6.1s.4.1.5.2c.2.1.3.2.4.4s.1.3.1.6c0 .2 0 .4-.1.5s-.2.3-.3.4c-.1.1-.3.2-.4.3s-.3.1-.5.2c.2 0 .3.1.5.1s.1 0 .3.1zm-.9-.8c.1-.1.2-.2.2-.4 0-.1.1-.3.1-.5 0-.3-.1-.5-.2-.7-.2-.2-.4-.3-.8-.3-.1 0-.2 0-.3 0s-.2 0-.3 0v2.1h.5c.2 0 .4 0 .5-.1 0 .1.2 0 .3-.1zm.5 1.7c0-.3-.1-.6-.3-.8s-.5-.3-.9-.3c-.2 0-.3 0-.4 0s-.2 0-.3 0v2c0 .2.1.3.2.4s.3.1.6.1c.4 0 .7-.1.9-.3s.2-.6.2-1.1zM54.7 83.9c-.3 0-.6-.1-1-.2-.3-.1-.6-.3-.8-.6-.2-.2-.4-.5-.6-.9-.1-.4-.2-.8-.2-1.2s.1-.8.2-1.2c.1-.4.3-.7.6-.9.2-.3.5-.5.8-.6.3-.1.7-.2 1-.2.3 0 .5 0 .7.1.2.1.4.2.6.3l.2-.3h.3v2h-.3c0-.2-.1-.4-.2-.6s0-.4-.1-.6c-.1-.2-.3-.3-.4-.4s-.4-.2-.6-.2c-.3 0-.5.1-.7.2-.2.1-.4.3-.6.5-.2.2-.3.5-.4.8-.1.3-.1.7-.1 1.1 0 .4 0 .7.1 1s.2.6.4.8c.2.2.4.4.6.5s.5.2.8.2c.2 0 .4 0 .6-.1s.3-.2.5-.3c.1-.1.2-.2.3-.4.1-.1.2-.3.2-.5l.3.1c-.2.5-.5.9-.9 1.2-.4.3-.8.4-1.3.4zM20.9 26.8c.3.5.5 1.2.5 2.1s-.2 1.6-.5 2.1-.7.7-1.3.7c-.6 0-1-.2-1.3-.7-.3-.5-.5-1.2-.5-2.1s.2-1.6.5-2.1.7-.7 1.3-.7c.6 0 1 .2 1.3.7zm-2.1.4c-.2.3-.3.9-.3 1.7s.1 1.3.3 1.7c.2.3.4.5.8.5.3 0 .6-.2.8-.5.2-.3.3-.9.3-1.7 0-.8-.1-1.3-.3-1.7-.2-.3-.4-.5-.8-.5-.3-.1-.6.1-.8.5zM23.2 30.6c.1.1.2.2.2.4s0 .4-.1.6l-.5 1.2h-.5l.3-1.3c-.1-.1-.1-.1-.2-.2 0-.1-.1-.2-.1-.3 0-.2.1-.3.2-.4.1-.1.2-.2.4-.2.1.1.2.1.3.2zM25.5 26.1v5.4h-.7v-4.6l-1.2.8-.3-.5 1.7-1h.5zM27.9 41.5c.3.5.5 1.2.5 2.1s-.2 1.6-.5 2.1-.7.7-1.3.7c-.6 0-1-.2-1.3-.7-.3-.5-.5-1.2-.5-2.1s.2-1.6.5-2.1.7-.7 1.3-.7c.6 0 1 .2 1.3.7zm-2.1.4c-.2.3-.3.9-.3 1.7s.1 1.3.3 1.7c.2.3.4.5.8.5.3 0 .6-.2.8-.5.2-.3.3-.9.3-1.7 0-.8-.1-1.3-.3-1.7-.2-.3-.4-.5-.8-.5-.3 0-.6.1-.8.5zM30.2 45.3c.1.1.2.2.2.4s0 .4-.1.6l-.5 1.2h-.5l.3-1.3c-.1-.1-.1-.1-.2-.2 0-.1-.1-.2-.1-.3 0-.2.1-.3.2-.4.1-.1.2-.2.4-.2 0 .1.2.1.3.2zM34.2 41.4h-2.1V43c.3-.1.6-.2.9-.2.5 0 .8.2 1.1.5s.4.7.4 1.2c0 .4-.1.7-.2.9-.2.3-.4.5-.7.6-.3.2-.6.2-1 .2-.3 0-.6-.1-.9-.2-.3-.1-.5-.3-.7-.5l.4-.4c.2.2.3.3.5.4s.4.1.6.1c.3 0 .6-.1.8-.3.2-.2.3-.5.3-.9s-.1-.7-.3-.8c-.2-.2-.4-.3-.7-.3-.1 0-.3 0-.4 0s-.2.1-.4.1h-.6v-2.7h2.9l.1.7zM78.1 38.6c.3.5.5 1.2.5 2.1s-.2 1.6-.5 2.1-.7.7-1.3.7c-.6 0-1-.2-1.3-.7-.3-.5-.5-1.2-.5-2.1s.2-1.6.5-2.1.7-.7 1.3-.7c.5 0 1 .2 1.3.7zM76 39c-.2.3-.3.9-.3 1.7s.1 1.3.3 1.7c.2.3.4.5.8.5.3 0 .6-.2.8-.5.2-.3.3-.9.3-1.7 0-.8-.1-1.3-.3-1.7-.2-.3-.4-.5-.8-.5s-.7.1-.8.5zM80.3 42.5c.1.1.2.2.2.4s0 .4-.1.6l-.5 1.2h-.5l.3-1.3c-.1-.1-.1-.1-.2-.2 0-.1-.1-.2-.1-.3 0-.2.1-.3.2-.4.1-.1.2-.2.4-.2.1 0 .2.1.3.2zM84.2 38v.6l-2 4.9-.7-.2 1.9-4.6H81V38h3.2zM77.8 54.7c.3.5.5 1.2.5 2.1s-.2 1.6-.5 2.1-.7.7-1.3.7c-.6 0-1-.2-1.3-.7-.3-.5-.5-1.2-.5-2.1s.2-1.6.5-2.1.7-.7 1.3-.7c.6 0 1 .2 1.3.7zm-2.1.4c-.2.3-.3.9-.3 1.7s.1 1.3.3 1.7c.2.3.4.5.8.5.3 0 .6-.2.8-.5.2-.3.3-.9.3-1.7 0-.8-.1-1.3-.3-1.7-.2-.3-.4-.5-.8-.5-.4-.1-.6.1-.8.5zM80.1 58.5c.1.1.2.2.2.4s0 .4-.1.6l-.5 1.2H79l.3-1.3c-.1-.1-.1-.1-.2-.2 0-.1-.1-.2-.1-.3 0-.2.1-.3.2-.4.1-.1.2-.2.4-.2.2.1.3.1.5.2zM83.3 54.1c.2.1.4.3.5.5.1.2.2.4.2.7 0 .3-.1.6-.3.8-.2.2-.4.4-.8.4.4 0 .6.2.9.4.2.2.3.5.3.9 0 .3-.1.6-.2.8-.1.3-.4.4-.6.6-.3.1-.6.2-1 .2-.3 0-.6-.1-.9-.2-.3-.1-.5-.3-.7-.5l.4-.4c.2.2.4.3.5.4.2.1.4.1.6.1.3 0 .6-.1.8-.3.2-.2.3-.4.3-.8s-.1-.6-.3-.7c-.2-.1-.4-.2-.8-.2H82l.1-.6h.3c.3 0 .5-.1.7-.2.2-.2.3-.4.3-.7 0-.3-.1-.4-.2-.6-.2-.1-.4-.2-.6-.2-.2 0-.4 0-.6.1-.2.1-.4.2-.5.4l-.5-.4c.5-.4 1-.6 1.5-.6.3 0 .6 0 .8.1zM20.3 66.7c.3.5.5 1.2.5 2.1 0 .9-.2 1.6-.5 2.1s-.7.7-1.3.7c-.6 0-1-.2-1.3-.7s-.5-1.2-.5-2.1c0-.9.2-1.6.5-2.1s.7-.7 1.3-.7c.5 0 1 .3 1.3.7zm-2.1.4c-.2.3-.3.9-.3 1.7 0 .8.1 1.3.3 1.7s.4.5.8.5c.3 0 .6-.2.8-.5.2-.3.3-.9.3-1.7 0-.8-.1-1.3-.3-1.7-.2-.3-.4-.5-.8-.5s-.7.2-.8.5zM22.5 70.6c.1.1.2.2.2.4s0 .4-.1.6l-.6 1.2h-.5l.3-1.3c-.1-.1-.1-.1-.2-.2s-.1-.2-.1-.3c0-.2.1-.3.2-.4.1-.1.2-.2.4-.2.2.1.3.1.4.2zM26.8 69.6v.6h-.7v1.3h-.7v-1.3h-2.3v-.5l1.6-3.6.6.3-1.4 3.3h1.5l.1-1.4h.6v1.4h.7zM99.5 56.2L59 49.1l40.5-7.4.1.7-36.4 6.7 36.4 6.3zM108 8.3c0 .5-.1.9-.3 1.2s-.4.6-.7.9c-.3.2-.6.4-1 .5s-.6.1-1 .1h-2.3v-.3c.1 0 .2 0 .3 0s.2 0 .2 0c.1 0 .1-.1.2-.2s.1-.1.1-.2v-4c0-.1 0-.2 0-.2s-.1-.1-.2-.2c-.1 0-.2-.1-.3-.1s-.2 0-.2 0v-.3h2.4c.3 0 .7.1 1 .2s.6.2.8.4c.3.2.6.5.8.9s.2.8.2 1.3zm-.9 0c0-.4 0-.7-.1-1-.1-.3-.2-.6-.4-.8-.2-.2-.4-.4-.7-.5-.3-.1-.6-.2-.9-.2-.1 0-.2 0-.4 0s-.2 0-.3 0v4.3c0 .2.1.4.2.5.1.1.4.1.6.1.3 0 .6-.1.9-.2.2-.1.4-.3.6-.5.2-.2.3-.5.4-.8 0-.2.1-.5.1-.9zM108 88c0 .5-.1.9-.3 1.2s-.4.6-.7.9c-.3.2-.6.4-1 .5s-.7.2-1.1.2h-2.3v-.3c.1 0 .2 0 .3 0s.2 0 .2 0c.1 0 .1-.1.2-.2s.1-.1.1-.2v-4c0-.1 0-.2 0-.2s-.1-.1-.2-.2c-.1 0-.2-.1-.3-.1-.1 0-.2 0-.2 0v-.3h2.4c.3 0 .7.1 1 .2.3.1.6.2.8.4.3.2.6.5.8.9s.3.7.3 1.2zm-.9 0c0-.4 0-.7-.1-1-.1-.3-.2-.6-.4-.8-.2-.2-.4-.4-.7-.5-.3-.1-.6-.2-.9-.2-.1 0-.2 0-.4 0s-.2 0-.3 0v4.3c0 .2.1.4.2.5s.4.1.6.1c.3 0 .6-.1.9-.2s.4-.3.6-.5c.2-.2.3-.5.4-.8 0-.2.1-.5.1-.9zM102.6 84.3h5.5v.2h-5.5zM108 55.9c0 .5-.1.9-.3 1.2s-.4.6-.7.9c-.3.2-.6.4-1 .5s-.7.2-1.1.2h-2.3v-.3c.1 0 .2 0 .3 0s.2 0 .2 0c.1 0 .1-.1.2-.2s.1-.1.1-.2v-4c0-.1 0-.2 0-.2s-.1-.1-.2-.2c-.1 0-.2-.1-.3-.1s-.2 0-.2 0v-.3h2.4c.3 0 .7.1 1 .2s.6.2.8.4c.3.2.6.5.8.9s.3.7.3 1.2zm-.9 0c0-.4 0-.7-.1-1-.1-.3-.2-.6-.4-.8-.2-.2-.4-.4-.7-.5-.3-.1-.6-.2-.9-.2-.1 0-.2 0-.4 0s-.2 0-.3 0v4.3c0 .2.1.4.2.5s.4.1.6.1c.3 0 .6-.1.9-.2s.4-.3.6-.5c.2-.2.3-.5.4-.8 0-.2.1-.5.1-.9zM102.6 52.2h5.5v.2h-5.5zM108 22.4c0 .5-.1.9-.3 1.2s-.4.6-.7.9c-.3.2-.6.4-1 .5s-.7.2-1.1.2h-2.3v-.3c.1 0 .2 0 .3 0s.2 0 .2 0c.1 0 .1-.1.2-.2s.1-.1.1-.2v-4c0-.1 0-.2 0-.2s-.1-.1-.2-.2c-.1 0-.2-.1-.3-.1s-.2 0-.2 0v-.3h2.4c.3 0 .7.1 1 .2s.6.2.8.4c.3.2.6.5.8.9s.3.7.3 1.2zm-.9 0c0-.4 0-.7-.1-1-.1-.3-.2-.6-.4-.8-.2-.2-.4-.4-.7-.5-.3-.1-.6-.2-.9-.2-.1 0-.2 0-.4 0s-.2 0-.3 0v4.3c0 .2.1.4.2.5s.4.1.6.1c.3 0 .6-.1.9-.2s.4-.3.6-.5c.2-.2.3-.5.4-.8 0-.2.1-.5.1-.9zM102.6 18.7h5.5v.2h-5.5zM99.5 21.9l-40.5-7 40.5-7.5.1.8-36.4 6.6 36.4 6.4zM108 73.4c0 .5-.1.9-.3 1.2-.2.3-.4.6-.7.9-.3.2-.6.4-1 .5s-.7.2-1.1.2h-2.3v-.3c.1 0 .2 0 .3 0 .1 0 .2 0 .2 0 .1 0 .1-.1.2-.2s.1-.1.1-.2v-4c0-.1 0-.2 0-.2s-.1-.1-.2-.2c-.1 0-.2-.1-.3-.1s-.2 0-.2 0v-.3h2.4c.3 0 .7.1 1 .2s.6.2.8.4c.3.2.6.5.8.9s.3.6.3 1.2zm-.9 0c0-.4 0-.7-.1-1-.1-.3-.2-.6-.4-.8-.2-.2-.4-.4-.7-.5-.3-.1-.6-.2-.9-.2-.1 0-.2 0-.4 0s-.2 0-.3 0v4.3c0 .2.1.4.2.5s.4.1.6.1c.3 0 .6-.1.9-.2s.4-.3.6-.5c.2-.2.3-.5.4-.8s.1-.6.1-.9zM99.5 87.8l-40.5-7 40.5-7.5.1.8-36.4 6.6 36.4 6.4zM78.5 70.2c.3.5.5 1.2.5 2.1 0 .9-.2 1.6-.5 2.1s-.7.7-1.3.7c-.6 0-1-.2-1.3-.7-.3-.5-.5-1.2-.5-2.1 0-.9.2-1.6.5-2.1s.7-.7 1.3-.7c.6 0 1 .2 1.3.7zm-2.1.4c-.2.3-.3.9-.3 1.7 0 .8.1 1.3.3 1.7.2.3.4.5.8.5.3 0 .6-.2.8-.5.2-.3.3-.9.3-1.7 0-.8-.1-1.3-.3-1.7-.2-.3-.4-.5-.8-.5s-.6.1-.8.5zM80.7 74c.1.1.2.2.2.4s0 .4-.1.6l-.5 1.2h-.5l.3-1.3c-.1-.1-.1-.1-.2-.2s-.1-.2-.1-.3c0-.2.1-.3.2-.4.1-.1.2-.2.4-.2.1.1.2.1.3.2zM83.1 69.6V75h-.7v-4.6l-1.2.8-.3-.5 1.7-1h.5zM77.8 86.8c.3.5.5 1.2.5 2.1 0 .9-.2 1.6-.5 2.1s-.7.7-1.3.7c-.6 0-1-.2-1.3-.7-.3-.5-.5-1.2-.5-2.1 0-.9.2-1.6.5-2.1s.7-.7 1.3-.7c.6-.1 1 .2 1.3.7zm-2.1.3c-.2.3-.3.9-.3 1.7 0 .8.1 1.3.3 1.7s.4.5.8.5c.3 0 .6-.2.8-.5s.3-.9.3-1.7c0-.8-.1-1.3-.3-1.7s-.4-.5-.8-.5c-.3 0-.6.2-.8.5zM80.1 90.6c.1.1.2.2.2.4s0 .4-.1.6l-.5 1.2H79l.3-1.3c-.1-.1-.1-.1-.2-.2s-.1-.2-.1-.3c0-.2.1-.3.2-.4.1-.1.2-.2.4-.2.2.1.4.1.5.2zM83.8 86.6c.3.4.4.9.4 1.5 0 .7-.1 1.3-.3 1.8s-.5.8-.9 1.1c-.4.3-1 .5-1.6.7l-.2-.6c.7-.2 1.3-.5 1.6-.8.4-.3.6-.8.6-1.4-.1.2-.3.3-.5.5s-.4.2-.7.2c-.3 0-.5-.1-.8-.2-.2-.1-.4-.3-.5-.6s-.2-.6-.2-.9c0-.4.1-.7.2-.9.2-.3.4-.5.6-.6.3-.1.5-.2.9-.2.7-.2 1.1 0 1.4.4zm-.3 1.7c0-.6-.1-1-.2-1.3s-.4-.4-.7-.4c-.3 0-.6.1-.7.3-.2.2-.3.5-.3.9s.1.7.2.8.4.3.6.3c.5.1.8-.2 1.1-.6zM77.9 3.8c.3.5.5 1.2.5 2.1s-.2 1.6-.5 2.1-.7.7-1.3.7c-.6 0-1-.2-1.3-.7-.3-.5-.5-1.2-.5-2.1s.2-1.6.5-2.1.7-.7 1.3-.7c.5 0 1 .3 1.3.7zm-2.2.4c-.2.3-.3.9-.3 1.7s.1 1.3.3 1.7c.2.3.4.5.8.5.3 0 .6-.2.8-.5.2-.3.3-.9.3-1.7 0-.8-.1-1.3-.3-1.7-.2-.3-.4-.5-.8-.5-.3 0-.6.2-.8.5zM80.1 7.7c.1.1.2.2.2.4s0 .4-.1.6l-.5 1.2h-.5l.3-1.3c-.1-.1-.1-.1-.2-.2 0-.1-.1-.2-.1-.3 0-.2.1-.3.2-.4.1-.1.2-.2.4-.2.1 0 .2.1.3.2zM83.3 3.3c.2.1.4.3.6.5.1.2.2.5.2.7 0 .3-.1.6-.2.9-.1.3-.4.6-.7 1s-.8.8-1.4 1.4h2.4l-.1.6H81V8c.7-.7 1.2-1.3 1.5-1.6.3-.4.5-.7.6-.9.1-.3.2-.5.2-.8 0-.3-.1-.5-.2-.7s-.4-.2-.6-.2c-.2 0-.4 0-.6.1s-.3.2-.5.4l-.5-.4c.2-.3.5-.5.7-.6s.6-.2.9-.2c.3 0 .6.1.8.2zM77.6 20.8c.3.5.5 1.2.5 2.1s-.2 1.6-.5 2.1-.7.7-1.3.7c-.6 0-1-.2-1.3-.7-.3-.5-.5-1.2-.5-2.1s.2-1.6.5-2.1.7-.7 1.3-.7c.6 0 1 .2 1.3.7zm-2.1.4c-.2.3-.3.9-.3 1.7s.1 1.3.3 1.7c.2.3.4.5.8.5.3 0 .6-.2.8-.5.2-.3.3-.9.3-1.7 0-.8-.1-1.3-.3-1.7-.2-.3-.4-.5-.8-.5s-.6.1-.8.5zM79.9 24.7c.1.1.2.2.2.4s0 .4-.1.6l-.5 1.2H79l.3-1.3c-.1-.1-.1-.1-.2-.2 0-.1-.1-.2-.1-.3 0-.2.1-.3.2-.4.1-.1.2-.2.4-.2 0 0 .2.1.3.2zM84.5 24.1c0 .3-.1.6-.2.8-.2.2-.4.4-.7.5-.3.1-.6.2-1 .2s-.7-.1-1-.2c-.3-.1-.5-.3-.6-.5-.2-.2-.2-.5-.2-.8 0-.3.1-.6.3-.8s.4-.4.8-.6c-.3-.1-.5-.3-.6-.5-.2-.2-.3-.5-.3-.7 0-.3.1-.5.2-.7.2-.2.4-.4.6-.5.2-.1.5-.2.8-.2.3 0 .5.1.8.2.2.1.4.3.6.5.2.2.2.5.2.7 0 .3-.1.5-.2.7-.1.2-.4.4-.7.5.8.3 1.2.7 1.2 1.4zm-1.1.7c.2-.2.3-.4.3-.7 0-.2 0-.4-.1-.5-.1-.1-.2-.2-.4-.3-.2-.1-.4-.2-.7-.3l-.2-.1c-.3.1-.5.3-.6.5-.1.2-.2.4-.2.7 0 .3.1.5.3.7s.5.2.8.2c.4 0 .6-.1.8-.2zM82 20.9c-.2.1-.2.3-.2.6s.1.5.2.6.4.3.8.4h.1c.2-.1.4-.3.5-.4s.2-.3.2-.6-.1-.5-.2-.6c-.2-.1-.4-.2-.7-.2-.3-.1-.5 0-.7.2z" class="st0"/></svg>